<?xml version="1.0" encoding="utf-8"?>
<!-- Generated by Mocodo 4.3.2 -->
<svg width="348" height="220" viewBox="0 0 348 220" xmlns="http://www.w3.org/2000/svg">
<rect x="0" y="0" width="348" height="220" fill="#f7f7f7" stroke="none" stroke-width="0"/>

<!-- Association APPARTENIR -->
<g>
	<line x1="59" y1="68" x2="187" y2="68" stroke="#de77ae" stroke-width="2"/>
	<line x1="302" y1="68" x2="187" y2="68" stroke="#de77ae" stroke-width="2"/>
	<g>
		<path d="M219 43 a14 14 90 0 1 14 14 V68 h-92 V57 a14 14 90 0 1 14 -14" fill="#f1b6da" stroke="#f1b6da" stroke-width="0"/>
		<path d="M233 68 v11 a14 14 90 0 1 -14 14 H155 a14 14 90 0 1 -14 -14 V68 H92" fill="#fde0ef" stroke="#fde0ef" stroke-width="0"/>
		<rect x="141" y="43" width="92" height="50" fill="none" rx="14" stroke="#de77ae" stroke-width="2"/>
		<line x1="141" y1="68" x2="233" y2="68" stroke="#de77ae" stroke-width="1"/>
		<text x="148" y="60.75" fill="#000000" font-family="Verdana" font-size="12">APPARTENIR</text>
	</g>
	<text x="114" y="85" fill="#4d9221" font-family="Verdana" font-size="12">1,1</text>
	<text x="238" y="85" fill="#4d9221" font-family="Verdana" font-size="12">0,N</text>
</g>

<!-- Association ATTRIBUER -->
<g>
	<line x1="59" y1="68" x2="59" y2="177" stroke="#de77ae" stroke-width="2"/>
	<line x1="187" y1="177" x2="59" y2="177" stroke="#de77ae" stroke-width="2"/>
	<g>
		<path d="M87 152 a14 14 90 0 1 14 14 V177 h-84 V166 a14 14 90 0 1 14 -14" fill="#f1b6da" stroke="#f1b6da" stroke-width="0"/>
		<path d="M101 177 v11 a14 14 90 0 1 -14 14 H31 a14 14 90 0 1 -14 -14 V177 H84" fill="#fde0ef" stroke="#fde0ef" stroke-width="0"/>
		<rect x="17" y="152" width="84" height="50" fill="none" rx="14" stroke="#de77ae" stroke-width="2"/>
		<line x1="17" y1="177" x2="101" y2="177" stroke="#de77ae" stroke-width="1"/>
		<text x="24" y="169.75" fill="#000000" font-family="Verdana" font-size="12">ATTRIBUER</text>
	</g>
	<text x="64" y="144" fill="#4d9221" font-family="Verdana" font-size="12">1,N</text>
	<text x="126" y="194" fill="#4d9221" font-family="Verdana" font-size="12">0,N</text>
</g>

<!-- Entity EMPLOYE -->
<g>
	<g>
		<rect x="9" y="9" width="100" height="25" fill="#b8e186" stroke="none" stroke-width="0" opacity="1"/>
		<rect x="9" y="34" width="100" height="93" fill="#e6f5d0" stroke="none" stroke-width="0" opacity="1"/>
		<rect x="9" y="9" width="100" height="118" fill="none" stroke="#7fbc41" stroke-width="2" opacity="1"/>
		<line x1="9" y1="34" x2="109" y2="34" stroke="#7fbc41" stroke-width="1"/>
	</g>
	<text x="31" y="26.75" fill="#000000" font-family="Verdana" font-size="12">EMPLOYE</text>
	<text x="14" y="51.8" fill="#000000" font-family="Verdana" font-size="12">id_employe</text>
	<line x1="14" y1="54" x2="85" y2="54" stroke="#000000" stroke-width="1"/>
	<text x="14" y="68.8" fill="#000000" font-family="Verdana" font-size="12">login</text>
	<text x="14" y="85.8" fill="#000000" font-family="Verdana" font-size="12">mot_de_passe</text>
	<text x="14" y="102.8" fill="#000000" font-family="Verdana" font-size="12">nom</text>
	<text x="14" y="119.8" fill="#000000" font-family="Verdana" font-size="12">prenom</text>
</g>

<!-- Entity LIGUE -->
<g>
	<g>
		<rect x="265" y="34" width="74" height="25" fill="#b8e186" stroke="none" stroke-width="0" opacity="1"/>
		<rect x="265" y="59" width="74" height="43" fill="#e6f5d0" stroke="none" stroke-width="0" opacity="1"/>
		<rect x="265" y="34" width="74" height="68" fill="none" stroke="#7fbc41" stroke-width="2" opacity="1"/>
		<line x1="265" y1="59" x2="339" y2="59" stroke="#7fbc41" stroke-width="1"/>
	</g>
	<text x="283" y="51.75" fill="#000000" font-family="Verdana" font-size="12">LIGUE</text>
	<text x="270" y="76.8" fill="#000000" font-family="Verdana" font-size="12">id_ligue</text>
	<line x1="270" y1="79" x2="318" y2="79" stroke="#000000" stroke-width="1"/>
	<text x="270" y="93.8" fill="#000000" font-family="Verdana" font-size="12">nom_ligue</text>
</g>

<!-- Entity ROLE -->
<g>
	<g>
		<rect x="153" y="143" width="68" height="25" fill="#b8e186" stroke="none" stroke-width="0" opacity="1"/>
		<rect x="153" y="168" width="68" height="43" fill="#e6f5d0" stroke="none" stroke-width="0" opacity="1"/>
		<rect x="153" y="143" width="68" height="68" fill="none" stroke="#7fbc41" stroke-width="2" opacity="1"/>
		<line x1="153" y1="168" x2="221" y2="168" stroke="#7fbc41" stroke-width="1"/>
	</g>
	<text x="171" y="160.75" fill="#000000" font-family="Verdana" font-size="12">ROLE</text>
	<text x="158" y="185.8" fill="#000000" font-family="Verdana" font-size="12">id_role</text>
	<line x1="158" y1="188" x2="200" y2="188" stroke="#000000" stroke-width="1"/>
	<text x="158" y="202.8" fill="#000000" font-family="Verdana" font-size="12">nom_role</text>
</g>
</svg>