<?xml version="1.0" encoding="utf-8"?>
<!-- Generated by Mocodo 4.3.2 -->
<svg width="564" height="154" viewBox="0 0 564 154" xmlns="http://www.w3.org/2000/svg">
<rect x="0" y="0" width="564" height="154" fill="#f7f7f7" stroke="none" stroke-width="0"/>

<!-- Association ATTRIBUER -->
<g>
	<line x1="275" y1="77" x2="151" y2="77" stroke="#de77ae" stroke-width="2"/>
	<line x1="43" y1="77" x2="151" y2="77" stroke="#de77ae" stroke-width="2"/>
	<g>
		<path d="M179 52 a14 14 90 0 1 14 14 V77 h-84 V66 a14 14 90 0 1 14 -14" fill="#f1b6da" stroke="#f1b6da" stroke-width="0"/>
		<path d="M193 77 v11 a14 14 90 0 1 -14 14 H123 a14 14 90 0 1 -14 -14 V77 H84" fill="#fde0ef" stroke="#fde0ef" stroke-width="0"/>
		<rect x="109" y="52" width="84" height="50" fill="none" rx="14" stroke="#de77ae" stroke-width="2"/>
		<line x1="109" y1="77" x2="193" y2="77" stroke="#de77ae" stroke-width="1"/>
		<text x="116" y="69.75" fill="#000000" font-family="Verdana" font-size="12">ATTRIBUER</text>
	</g>
	<text x="198" y="94" fill="#4d9221" font-family="Verdana" font-size="12">1,N</text>
	<text x="82" y="94" fill="#4d9221" font-family="Verdana" font-size="12">0,N</text>
</g>

<!-- Association APPARTENIR -->
<g>
	<line x1="275" y1="77" x2="403" y2="77" stroke="#de77ae" stroke-width="2"/>
	<line x1="518" y1="77" x2="403" y2="77" stroke="#de77ae" stroke-width="2"/>
	<g>
		<path d="M435 52 a14 14 90 0 1 14 14 V77 h-92 V66 a14 14 90 0 1 14 -14" fill="#f1b6da" stroke="#f1b6da" stroke-width="0"/>
		<path d="M449 77 v11 a14 14 90 0 1 -14 14 H371 a14 14 90 0 1 -14 -14 V77 H92" fill="#fde0ef" stroke="#fde0ef" stroke-width="0"/>
		<rect x="357" y="52" width="92" height="50" fill="none" rx="14" stroke="#de77ae" stroke-width="2"/>
		<line x1="357" y1="77" x2="449" y2="77" stroke="#de77ae" stroke-width="1"/>
		<text x="364" y="69.75" fill="#000000" font-family="Verdana" font-size="12">APPARTENIR</text>
	</g>
	<text x="330" y="94" fill="#4d9221" font-family="Verdana" font-size="12">1,1</text>
	<text x="454" y="94" fill="#4d9221" font-family="Verdana" font-size="12">0,N</text>
</g>

<!-- Entity ROLE -->
<g>
	<g>
		<rect x="9" y="43" width="68" height="25" fill="#b8e186" stroke="none" stroke-width="0" opacity="1"/>
		<rect x="9" y="68" width="68" height="43" fill="#e6f5d0" stroke="none" stroke-width="0" opacity="1"/>
		<rect x="9" y="43" width="68" height="68" fill="none" stroke="#7fbc41" stroke-width="2" opacity="1"/>
		<line x1="9" y1="68" x2="77" y2="68" stroke="#7fbc41" stroke-width="1"/>
	</g>
	<text x="27" y="60.75" fill="#000000" font-family="Verdana" font-size="12">ROLE</text>
	<text x="14" y="85.8" fill="#000000" font-family="Verdana" font-size="12">id_role</text>
	<line x1="14" y1="88" x2="56" y2="88" stroke="#000000" stroke-width="1"/>
	<text x="14" y="102.8" fill="#000000" font-family="Verdana" font-size="12">nom_role</text>
</g>

<!-- Entity EMPLOYE -->
<g>
	<g>
		<rect x="225" y="9" width="100" height="25" fill="#b8e186" stroke="none" stroke-width="0" opacity="1"/>
		<rect x="225" y="34" width="100" height="111" fill="#e6f5d0" stroke="none" stroke-width="0" opacity="1"/>
		<rect x="225" y="9" width="100" height="136" fill="none" stroke="#7fbc41" stroke-width="2" opacity="1"/>
		<line x1="225" y1="34" x2="325" y2="34" stroke="#7fbc41" stroke-width="1"/>
	</g>
	<text x="247" y="26.75" fill="#000000" font-family="Verdana" font-size="12">EMPLOYE</text>
	<text x="230" y="51.8" fill="#000000" font-family="Verdana" font-size="12">id_employe</text>
	<line x1="230" y1="54" x2="301" y2="54" stroke="#000000" stroke-width="1"/>
	<text x="230" y="68.8" fill="#000000" font-family="Verdana" font-size="12">mot_de_passe</text>
	<text x="230" y="85.8" fill="#000000" font-family="Verdana" font-size="12">nom</text>
	<text x="230" y="102.8" fill="#000000" font-family="Verdana" font-size="12">prenom</text>
	<text x="230" y="119.8" fill="#000000" font-family="Verdana" font-size="12">date_arrivee</text>
	<text x="230" y="136.8" fill="#000000" font-family="Verdana" font-size="12">date_depart</text>
</g>

<!-- Entity LIGUE -->
<g>
	<g>
		<rect x="481" y="43" width="74" height="25" fill="#b8e186" stroke="none" stroke-width="0" opacity="1"/>
		<rect x="481" y="68" width="74" height="43" fill="#e6f5d0" stroke="none" stroke-width="0" opacity="1"/>
		<rect x="481" y="43" width="74" height="68" fill="none" stroke="#7fbc41" stroke-width="2" opacity="1"/>
		<line x1="481" y1="68" x2="555" y2="68" stroke="#7fbc41" stroke-width="1"/>
	</g>
	<text x="499" y="60.75" fill="#000000" font-family="Verdana" font-size="12">LIGUE</text>
	<text x="486" y="85.8" fill="#000000" font-family="Verdana" font-size="12">id_ligue</text>
	<line x1="486" y1="88" x2="534" y2="88" stroke="#000000" stroke-width="1"/>
	<text x="486" y="102.8" fill="#000000" font-family="Verdana" font-size="12">nom_ligue</text>
</g>
</svg>